<svg width="50" height="58" viewBox="0 0 50 58" fill="none" xmlns="http://www.w3.org/2000/svg">
<path d="M25.244 57.6881H1.705C0.262001 57.6881 0.133001 57.5721 0.132001 56.1231C0.126001 40.8277 0.126001 25.5331 0.132001 10.2391C0.132001 8.96508 0.363001 8.74408 1.64 8.73908C3.755 8.72908 5.87 8.72908 7.985 8.72208C9.098 8.72208 9.326 8.50608 9.335 7.37508C9.351 5.50508 9.326 3.63508 9.35 1.76608C9.365 0.586081 9.618 0.336081 10.755 0.336081C16.701 0.336081 22.649 0.264081 28.593 0.377081C32.293 0.446081 35.7 1.65908 38.821 3.70008C40.847 5.02308 42.601 6.61008 44.021 8.54408C45.793 10.9581 46.966 13.6291 47.63 16.5881C48.358 19.8331 48.182 22.9961 47.307 26.1241C46.148 30.2671 43.884 33.7411 40.494 36.4341C39.803 36.9831 39.061 37.4701 38.323 37.9561C37.803 38.2981 37.723 38.7351 38.044 39.2051C40.299 42.5121 42.575 45.8051 44.837 49.1051C46.477 51.4991 48.108 53.8991 49.73 56.3051L49.736 56.3141C50.107 56.8781 49.695 57.6431 49.02 57.6721H48.969C41.0597 57.6907 33.1513 57.6961 25.244 57.6881ZM12.857 18.4421C12.886 25.6421 12.874 32.8481 12.881 40.0511C12.881 40.4831 12.961 40.9161 13.004 41.3511L13.258 41.4071C13.558 40.9981 13.867 40.6001 14.145 40.1801C16.317 36.8921 18.502 33.6131 20.635 30.3001C21.107 29.5691 21.7 29.3791 22.487 29.4001C24.019 29.4431 25.558 29.5521 27.081 29.4441C28.289 29.3591 29.581 29.2101 30.654 28.7101C33.7 27.3001 35.5 24.9001 35.786 21.4581C36.198 16.4271 32.328 12.1251 27.286 12.1081C19.838 12.0831 12.386 12.0981 4.942 12.1021C3.4 12.1001 3.4 12.1201 3.4 13.6321C3.4 26.2601 3.4 38.8881 3.4 51.5161C3.4 54.4041 2.942 54.2571 6.185 54.2591C18.445 54.2658 30.705 54.2684 42.965 54.2671C43.21 54.2671 43.518 54.2291 43.665 54.0011C43.797 53.7951 43.689 53.4011 43.546 53.1781C42.546 51.6421 41.509 50.1281 40.475 48.6141C38.075 45.1081 35.675 41.6034 33.275 38.1001C32.732 37.3001 32.903 36.8801 33.815 36.4441C34.831 35.9581 35.869 35.5001 36.826 34.9131C40.818 32.4691 43.36 28.8631 44.274 24.3531C45.462 18.4881 44.103 13.1531 39.819 8.78508C37.174 6.09008 33.99 4.19108 30.172 4.01408C24.7 3.76008 19.21 3.83008 13.727 3.76108C13.051 3.75208 12.804 4.14308 12.799 4.75208C12.792 5.67108 12.782 6.59108 12.799 7.51008C12.814 8.55408 12.999 8.71708 14.057 8.71708C18.195 8.71708 22.333 8.69908 26.47 8.72708C28.31 8.73908 30.102 8.97208 31.85 9.68908C34.3445 10.6893 36.4105 12.5306 37.69 14.8941C39.656 18.4731 39.909 22.2321 37.99 25.9761C35.89 30.0811 32.575 32.4201 27.933 32.7291C26.621 32.8161 25.295 32.6861 23.983 32.7731C23.494 32.8051 22.83 33.0381 22.583 33.4061C19.8123 37.5074 17.0847 41.6364 14.4 45.7931C13.832 46.6691 13.178 47.1371 12.092 47.1381C9.615 47.1381 9.612 47.1811 9.61 44.6601C9.606 35.9267 9.606 27.1911 9.61 18.4531L12.857 18.4421ZM12.857 18.4421C12.8451 18.0184 12.6682 17.6162 12.3638 17.3213C12.0595 17.0264 11.6519 16.8621 11.2281 16.8635C10.8043 16.8649 10.3979 17.032 10.0956 17.329C9.79324 17.626 9.61898 18.0294 9.61 18.4531" fill="white"/>
</svg>
